<svg xmlns="http://www.w3.org/2000/svg" viewBox="0 0 1920 169.15"><defs><style>.cls-1{fill:#e9de30;}</style></defs><title>ALEXMC-slim</title><g id="Layer_2" data-name="Layer 2"><g id="Layer_2-2" data-name="Layer 2"><path class="cls-1" d="M1084.24,35.55h-12.15v98h12.15c6.86,0,11-3.53,11-13.33V48.88C1095.22,39.08,1091.1,35.55,1084.24,35.55Z"/><path class="cls-1" d="M1232.81,34c-6.86,0-11.18,3.73-11.18,13.53v74.08c0,9.8,4.32,13.53,11.18,13.53s11.17-3.73,11.17-13.53V47.51C1244,37.71,1239.67,34,1232.81,34Z"/><polygon class="cls-1" points="67.21 40.25 57.02 109.64 77.79 109.64 67.6 40.25 67.21 40.25"/><path class="cls-1" d="M0,0V169.15H1920V0ZM84.46,153.15l-3.73-24.89H54.27l-3.72,24.89H30.75L52.7,16H84.26l21.95,137.2Zm160.13,0h-57V16h21.56v117.6h35.48ZM384.14,35.55H346.9V73.77h29.59v19.6H346.9v40.18h37.24v19.6h-58.8V16h58.8Zm135.43,117.6L502.13,98.86h-.39L484.1,153.15H463.91L488,82.59,465.48,16h22.34l16.07,50.57h.39L520.75,16h20L518.2,82.59l24.11,70.56Zm296.94,0H796.13V54.76h-.4l-14.5,98.39H760.85l-15.68-97h-.4v97H726V16h30l15.68,97.41H772L786.52,16h30ZM966.05,62.21H945.67V47.51c0-9.8-4.31-13.53-11.17-13.53s-11.17,3.73-11.17,13.53v74.08c0,9.8,4.31,13.33,11.17,13.33s11.17-3.53,11.17-13.33V102h20.38v18.23c0,21.95-11,34.5-32.14,34.5s-32.14-12.55-32.14-34.5V48.88c0-22,11-34.5,32.14-34.5s32.14,12.55,32.14,34.5Zm150.73,57c0,22-10.59,33.91-32.15,33.91h-34.1V16h34.1c21.56,0,32.15,12,32.15,33.91Zm148.76,1c0,21.95-11.57,34.5-32.73,34.5s-32.73-12.55-32.73-34.5V48.88c0-22,11.56-34.5,32.73-34.5s32.73,12.55,32.73,34.5Zm169.54,32.93h-28.62L1398.82,80h-.39l-7.65,73.11h-29.59L1345.9,16h21l11.37,108.19h.39L1388.82,16h20.78l10.58,109h.39l11-109h18.82Zm156.21-117.6h-37.24V73.77h29.59v19.6h-29.59v40.18h37.24v19.6h-58.8V16h58.8ZM1733,153.15h-57V16h21.56v117.6H1733Zm137.79,0h-57V16h21.56v117.6h35.48Z"/></g></g></svg>