<svg xmlns="http://www.w3.org/2000/svg" viewBox="0 0 659.06 659.06"><defs><style>.cls-1{fill:none;stroke:#e9de30;stroke-width:21.06px;}.cls-2{fill:#e9de30;}</style></defs><title>Asset 3</title><g id="Layer_2" data-name="Layer 2"><g id="Layer_1-2" data-name="Layer 1"><circle class="cls-1" cx="329.53" cy="329.53" r="319"/></g><g id="Layer_2-2" data-name="Layer 2"><path class="cls-2" d="M231.09,200.16h1.08c7.21.36,13.69,3.6,19.81,7.2a114.63,114.63,0,0,1,32.43,29.18c5.4,6.85,9.73,16.22,6.48,24.14-3.6,9.37-16.21,13.33-18,23.42-1.08,5.4,1.8,10.45,4.68,14.77a184.27,184.27,0,0,0,64.85,63.05c2.52,1.44,5.41,2.88,8.29,2.88h.72c.36,0,.36-.36.72-.36,3.24-.72,5.76-2.88,7.93-5.4a93.82,93.82,0,0,1,17.65-13.33c2.16-1.08,4.32-2.53,6.85-2.53h.72a15,15,0,0,1,6.48,2.89,184,184,0,0,1,30.62,24.86c6.49,6.48,12.61,13.69,14.41,23.05,1.81,9-1.8,18.38-7.92,24.86-6.13,6.85-14.41,10.81-23.42,13a63.25,63.25,0,0,1-16.57,1.8c-12.61,0-25.22-2.88-37.11-7.2-49.36-16.94-90.07-53-119.61-95.83-12.61-18-23.42-37.83-28.1-59.09-4.69-19.45-3.24-71.33,27-71.33m0-25.94h0a49,49,0,0,0-38.55,18.37c-20.9,26.3-17.65,70.25-14.41,85,4.68,22.34,15.49,44.68,32.42,68.82,36,51.52,81.79,87.9,132.58,105.2,16.58,5.76,31.71,8.64,45.76,8.64a93.44,93.44,0,0,0,22.7-2.52c15.13-3.6,27.38-10.45,36.38-20.53,12.25-13,17.66-30.63,14.41-47.2-3.24-18-15.49-30.26-21.25-36.39a207.92,207.92,0,0,0-34.95-28.46c-.36,0-.36-.36-.72-.36a37.67,37.67,0,0,0-17.65-6.48H384.2a36.53,36.53,0,0,0-19.45,5.76c-6.12,3.6-11.89,7.21-16.93,11.89a160.58,160.58,0,0,1-46.12-46.12c4.33-4,10.09-9.72,13.33-18.37,3.61-9,6.85-27.38-9.73-49.72a136.1,136.1,0,0,0-40-36c-6.84-4.33-18-10.09-31.34-10.81h-.72c-.36-.72-1.08-.72-2.16-.72Z"/></g></g></svg>