<svg xmlns="http://www.w3.org/2000/svg" viewBox="0 0 659.06 659.06"><defs><style>.cls-1{fill:none;stroke:#e9de30;stroke-width:21.06px;}.cls-2{fill:#e9de30;}</style></defs><title>Asset 5</title><g id="Layer_2" data-name="Layer 2"><g id="Layer_1-2" data-name="Layer 1"><circle class="cls-1" cx="329.53" cy="329.53" r="319"/></g><g id="Layer_2-2" data-name="Layer 2"><path class="cls-2" d="M396.13,176.42H258.93a84.6,84.6,0,0,0-84.51,84.51v137.2a84.6,84.6,0,0,0,84.51,84.51h137.2a84.6,84.6,0,0,0,84.51-84.51V260.93A84.6,84.6,0,0,0,396.13,176.42Zm57.34,221.71a57.4,57.4,0,0,1-57.34,57.34H258.93a57.4,57.4,0,0,1-57.34-57.34V260.93a57.4,57.4,0,0,1,57.34-57.34h137.2a57.4,57.4,0,0,1,57.34,57.34v137.2Z"/><path class="cls-2" d="M327.53,250.63a78.9,78.9,0,1,0,78.9,78.9A79,79,0,0,0,327.53,250.63Zm0,130.63a51.73,51.73,0,1,1,51.73-51.73A51.78,51.78,0,0,1,327.53,381.26Z"/><path class="cls-2" d="M409.74,227.59a19.94,19.94,0,1,0,14.09,5.84A20,20,0,0,0,409.74,227.59Z"/></g></g></svg>