<svg xmlns="http://www.w3.org/2000/svg" viewBox="0 0 659.06 659.06"><defs><style>.cls-1{fill:none;stroke:#e9de30;stroke-width:21.06px;}.cls-2{fill:#e9de30;}</style></defs><title>Asset 1</title><g id="Layer_2" data-name="Layer 2"><g id="Layer_1-2" data-name="Layer 1"><circle class="cls-1" cx="329.53" cy="329.53" r="319"/><path class="cls-2" d="M470.51,248,385.2,328.53l85.3,80.57a32.78,32.78,0,0,0,.4-4.88V252.84A33.92,33.92,0,0,0,470.51,248Z"/><path class="cls-2" d="M338.21,349.77,463.3,231.62a33.58,33.58,0,0,0-26-12.42H201.79a33.62,33.62,0,0,0-26,12.42l125.1,118.15C311,359.34,328.09,359.34,338.21,349.77Z"/><path class="cls-2" d="M168.55,248a34.18,34.18,0,0,0-.39,4.88V404.22a34.18,34.18,0,0,0,.39,4.88l85.3-80.58Z"/><path class="cls-2" d="M349.76,362a44.59,44.59,0,0,1-60.46,0l-23.19-21.91-90.35,85.35a33.58,33.58,0,0,0,26,12.42H437.27a33.58,33.58,0,0,0,26-12.42L373,340.09Z"/></g></g></svg>