<svg xmlns="http://www.w3.org/2000/svg" viewBox="0 0 659.06 659.06"><defs><style>.cls-1{fill:none;stroke:#e9de30;stroke-width:21.06px;}.cls-2{fill:#e9de30;}</style></defs><title>Asset 4</title><g id="Layer_2" data-name="Layer 2"><g id="Layer_1-2" data-name="Layer 1"><circle class="cls-1" cx="329.53" cy="329.53" r="319"/></g><g id="Layer_2-2" data-name="Layer 2"><path id="LinkedIn" class="cls-2" d="M501.93,352.05V471.13h-69V360c0-27.91-10-47-35-47-19.08,0-30.43,12.84-35.42,25.25-1.82,4.44-2.29,10.62-2.29,16.84v116H291.16s.93-188.17,0-207.66h69V292.9c-.14.22-.32.46-.45.67h.45v-.67c9.17-14.13,25.56-34.31,62.23-34.31C467.87,258.59,501.93,288.27,501.93,352.05Zm-283-188.69c-23.63,0-39.08,15.5-39.08,35.88,0,19.93,15,35.89,38.16,35.89h.46c24.08,0,39.06-16,39.06-35.89C257.08,178.86,242.55,163.36,218.93,163.36ZM184,471.13h69V263.47H184Z"/></g></g></svg>