<svg xmlns="http://www.w3.org/2000/svg" viewBox="0 0 659.06 659.06"><defs><style>.cls-1{fill:none;stroke:#e9de30;stroke-width:21.06px;}.cls-2{fill:#e9de30;}</style></defs><title>film-icon</title><g id="Layer_1" data-name="Layer 1"><circle class="cls-1" cx="329.53" cy="329.53" r="319"/></g><g id="Layer_3" data-name="Layer 3"><path class="cls-2" d="M310.5,186.84h267a22.55,22.55,0,0,1,22.84,22.83V461.41a22.63,22.63,0,0,1-22.84,22.83h-267a22.72,22.72,0,0,1-22.84-22.83V209.67A22.64,22.64,0,0,1,310.5,186.84ZM322,202.11v30.4h30.54v-30.4Zm53.38,0v30.4H405.9v-30.4Zm53.37,0v30.4h30.54v-30.4Zm53.37,0v30.4h30.54v-30.4Zm53.38,0v30.4H566v-30.4ZM337.25,247.78c-12.56,1.21-22.7,11.48-22.83,23V400.33c1.21,12.57,11.48,22.7,22.83,22.84h213.5c12.56-1.22,22.7-11.49,23-22.84V270.75c-1.35-12.7-11.49-22.7-23-23Zm57.16,33.1V389.93c35.81-18.51,73.24-38.38,104.18-54.46C460.49,315.47,428.87,298.85,394.41,280.88ZM322,438.44V469h30.54V438.44Zm53.38,0V469H405.9V438.44Zm53.37,0V469h30.54V438.44Zm53.37,0V469h30.54V438.44Zm53.38,0V469H566V438.44Z" transform="translate(-118.47 -3.47)"/></g></svg>