<svg xmlns="http://www.w3.org/2000/svg" viewBox="0 0 659.06 659.06"><defs><style>.cls-1{fill:none;stroke:#e9de30;stroke-width:21.06px;}.cls-2{fill:#e9de30;}</style></defs><title>graphics-icon</title><g id="Layer_1" data-name="Layer 1"><circle class="cls-1" cx="329.53" cy="329.53" r="319"/></g><g id="Layer_3" data-name="Layer 3"><path class="cls-2" d="M610,264.25l-97.33-97.32a8,8,0,0,0-12.52,1.54l-49.35,82.26a8,8,0,0,1-3.55,3.16l-79.8,36.28a8,8,0,0,1-10.83-4.53,226.84,226.84,0,0,1-12.49-51.41h4.21a8,8,0,0,0,8-8V186.32a8,8,0,0,0-8-8H308.4a8,8,0,0,0-8,8v39.91a8,8,0,0,0,8,8h7.53A254.41,254.41,0,0,0,339.1,316a8.07,8.07,0,0,1,.39,6L286.82,480a8,8,0,0,0,10.12,10.12l158-52.66a8,8,0,0,1,6,.38A253.9,253.9,0,0,0,542.67,461v7.54a8,8,0,0,0,8,8h39.91a8,8,0,0,0,8-8V428.59a8,8,0,0,0-8-8H550.67a8,8,0,0,0-8,8v4.2a226.93,226.93,0,0,1-51.42-12.49,8,8,0,0,1-4.52-10.83L523,329.68a8,8,0,0,1,3.17-3.55l82.26-49.36A8,8,0,0,0,610,264.25Zm-274.3-48.66H321a2,2,0,0,1-2-2V199a2,2,0,0,1,2-2h14.63a2,2,0,0,1,2,2v14.64A2,2,0,0,1,335.67,215.59ZM561.3,439.22h18.64v18.64H561.3ZM498.58,315.84,457,407.24l-111.31,37.1,61.73-61.73a18.31,18.31,0,0,0,21.05-8.83,17.19,17.19,0,0,0,1.76-4.36A18.66,18.66,0,0,0,399,351.5a18.17,18.17,0,0,0-4.77,17.95l-61.72,61.72,36-108a8,8,0,0,1,4.28-4.75l88.23-40.11.48-.22,37.27,37.27ZM478,259.65l27.65-46.1A8,8,0,0,1,518.19,212l46.69,46.69a8,8,0,0,1-1.54,12.52l-46.09,27.66a8,8,0,0,1-9.77-1.2l-28.26-28.26A8,8,0,0,1,478,259.65Z" transform="translate(-118.47 -3.47)"/></g></svg>