<svg id="Layer_1" data-name="Layer 1" xmlns="http://www.w3.org/2000/svg" viewBox="0 0 659.06 659.06"><defs><style>.cls-1{fill:none;stroke:#e9de30;stroke-width:21.06px;}.cls-2{fill:#fefefe;}.cls-3{fill:#eee667;}.cls-4{fill:#f7f3b9;}.cls-5{fill:#f7f3b8;}.cls-6{fill:#f0e97d;}.cls-7{fill:#e8dd30;}</style></defs><title>LinkedIn-icon_2</title><circle class="cls-1" cx="329.53" cy="329.53" r="319"/><path class="cls-2" d="M413,493c-37.29,0-74.57-.08-111.86.12-3.89,0-4.22-1.15-4.21-4.47q.13-135.82.07-271.65a1,1,0,0,1,1.38.13c1.93,3.51,2.34,7.6,4.37,11.11,6,10.42,15.19,16.18,26.81,17.95,12.1,1.84,23.63.07,33.65-7.54s14.23-18.44,13.15-30.73c-1.2-13.57-8.05-24.06-20.91-29.36a45,45,0,0,0-36.4.36c-9.95,4.38-16.2,11.9-19.2,22.26a10.77,10.77,0,0,1-1.46,3.7A1,1,0,0,1,297,205V173q165,0,330-.1c3.42,0,4.1.68,4.1,4.1q-.21,90-.1,180a1.09,1.09,0,0,1-1.53-.39c-1.42-3.44-1.44-7.14-2-10.75-2.22-15-6.68-29.21-15.58-41.72-12.56-17.65-30.15-26.53-51.22-29.66a87.57,87.57,0,0,0-29.78,1c-15.16,2.91-27.52,10.58-37.54,22.18-1.63,1.89-3.11,3.91-4.66,5.87-1.17,1.5-2.22,4-4.46,3.16-2.07-.8-1.64-3.42-1.68-5.38-.12-5.82-.14-11.66,0-17.48.08-3.75-1.26-5.44-5.21-5.43-19.15.08-38.31,0-57.46.07-4.95,0-5.4.66-5.4,6.65q0,52,0,104,0,47.47,0,94.95c0,2.48.26,5-.48,7.45A7.67,7.67,0,0,1,413,493Z" transform="translate(-118.47 -3.47)"/><path class="cls-2" d="M559,493H484a7.41,7.41,0,0,1-1-1.58c-.69-2.1-.51-4.28-.51-6.44,0-38,.06-76-.05-113.92-.05-14.66,5.59-26.43,16.79-35.75,19.16-15.95,48.82-8.11,57.35,15.22a64,64,0,0,1,3.9,22q.13,56.71,0,113.42a16.7,16.7,0,0,1-.5,5.45A7,7,0,0,1,559,493Z" transform="translate(-118.47 -3.47)"/><path class="cls-3" d="M630.1,356.87c.3.06.6.1.9.13V492a1.26,1.26,0,0,1-1.67-.59c-1.19-2.33-.94-4.86-.94-7.34q0-59.58,0-119.17C628.41,362.14,627.81,359.17,630.1,356.87Z" transform="translate(-118.47 -3.47)"/><path class="cls-4" d="M629.92,491.86,631,492c-.9,2.07-2.7.93-4,.94-22.67.08-45.33.06-68,.06.06-.4.12-.8.19-1.21,2-1.66,4.38-1.38,6.67-1.39q28.7-.06,57.39,0C625.56,490.41,628,490.17,629.92,491.86Z" transform="translate(-118.47 -3.47)"/><path class="cls-5" d="M483.93,491.91,484,493H413a5,5,0,0,1,0-.95c1.75-1.59,3.92-1.65,6.09-1.65q29.63-.06,59.24,0C480.29,490.41,482.31,490.43,483.93,491.91Z" transform="translate(-118.47 -3.47)"/><path class="cls-6" d="M297.89,217.12A6.57,6.57,0,0,1,297,217V205a2.08,2.08,0,0,1,.86-.15A10.9,10.9,0,0,1,297.89,217.12Z" transform="translate(-118.47 -3.47)"/><path class="cls-7" d="M483.93,491.91l-71,.14c-.09-3.65-.24-7.31-.25-11q0-99.19-.1-198.37c0-4.27.88-5.7,5.44-5.64q30.22.41,60.45,0c4.86-.07,5.82,1.56,5.64,5.93-.32,7.63-.09,15.28-.09,24.08,2.47-3.16,4.32-5.56,6.2-7.93,16.79-21.27,39.39-28.52,65.5-26.63,20.14,1.46,37.94,8.57,51.77,23.8,12.76,14.06,18.81,31.16,21.52,49.62.53,3.62.71,7.28,1.05,10.93Q630,394,630,431.08q0,30.39-.08,60.78l-70.73-.07Q559.09,432.38,559,373a65.08,65.08,0,0,0-3.13-20.13C547.74,328,517.19,320.34,498,338.2c-9,8.35-13.86,18.46-13.86,30.87q0,58.68-.07,117.35C484.05,488.25,484,490.08,483.93,491.91Z" transform="translate(-118.47 -3.47)"/><path class="cls-7" d="M301.83,385c0-34,.1-68-.12-101.93,0-4.92,1.43-6,6.14-6,20,.26,40,.23,60,0,4.22-.05,5.27,1.26,5.26,5.36q-.18,102.2,0,204.37c0,4-.85,5.38-5.14,5.33-20.48-.24-41-.2-61.45,0-3.75,0-4.75-1-4.74-4.74C301.89,453.3,301.83,419.15,301.83,385Z" transform="translate(-118.47 -3.47)"/><path class="cls-7" d="M297.89,217.12l0-12.27c2.14-16.29,15.49-29,32.7-30.71,12.78-1.28,25,.2,35.1,9.22a37,37,0,0,1,10,40.18c-5.57,15.32-17.44,22.73-33,24.22-16.65,1.6-31.06-2.84-40.42-18A28.45,28.45,0,0,1,297.89,217.12Z" transform="translate(-118.47 -3.47)"/></svg>