<svg xmlns="http://www.w3.org/2000/svg" viewBox="0 0 659.06 659.06"><defs><style>.cls-1{fill:none;stroke:#e9de30;stroke-width:21.06px;}.cls-2{fill:#e9de30;}</style></defs><title>photo-icon</title><g id="Layer_1" data-name="Layer 1"><circle class="cls-1" cx="329.53" cy="329.53" r="319"/></g><g id="Layer_3" data-name="Layer 3"><path class="cls-2" d="M359.36,276.38A26.67,26.67,0,1,0,386,303a26.67,26.67,0,0,0-26.66-26.66ZM562.57,212H288.15a43.49,43.49,0,0,0-43.37,43.33V432.17a43.5,43.5,0,0,0,43.37,43.49H562.7a43.49,43.49,0,0,0,43.36-43.49V255.29a43.48,43.48,0,0,0-43.36-43.37ZM584.4,432.17a21.7,21.7,0,0,1-21.66,21.66h-3.38A30.61,30.61,0,0,0,555.3,443L483.08,317.88c-9.92-17.19-26.18-17.19-36.14,0L389.6,417.25l-15.37-25.73c-10.16-17.07-26.78-17.07-36.94,0l-30.93,52a30.68,30.68,0,0,0-4.07,10.57H288.15a21.71,21.71,0,0,1-21.71-21.71,1.93,1.93,0,0,1,0-.24V255.29a21.7,21.7,0,0,1,21.66-21.67H562.7a21.71,21.71,0,0,1,21.66,21.67V432.17Z" transform="translate(-118.47 -3.47)"/><path class="cls-2" d="M605.58,169.2H357.2a45.81,45.81,0,0,0-43.65,32.52h24.92A23,23,0,0,1,357.2,192H605.58a23.08,23.08,0,0,1,23,23V396a22.82,22.82,0,0,1-10.81,19.34v24.39A45.75,45.75,0,0,0,651.22,396V214.85A45.77,45.77,0,0,0,605.58,169.2Z" transform="translate(-118.47 -3.47)"/></g></svg>