<svg xmlns="http://www.w3.org/2000/svg" viewBox="0 0 659.06 659.06"><defs><style>.cls-1{fill:none;stroke:#e9de30;stroke-width:21.06px;}.cls-2{fill:#e9de30;}</style></defs><title>website-icon</title><g id="Layer_1" data-name="Layer 1"><circle class="cls-1" cx="329.53" cy="329.53" r="319"/></g><g id="Layer_3" data-name="Layer 3"><path class="cls-2" d="M500.53,475.57h-116a9.11,9.11,0,1,1,0-18.22h116a9.11,9.11,0,1,1,0,18.22Z" transform="translate(-118.47 -3.47)"/><path class="cls-2" d="M558.39,206.59H326.63c-24.13,0-38,13.71-38,37.63V401c0,23.92,13.84,37.63,38,37.63H558.38c24.13,0,38-13.71,38-37.63V244.22C596.35,220.3,582.52,206.59,558.39,206.59ZM442.51,427.9a5.9,5.9,0,1,1,5.9-5.9A5.9,5.9,0,0,1,442.51,427.9Zm124.83-33.38c0,7.43-.61,8.62-9,8.62H326.63c-8.35,0-9-1.19-9-8.62V244.22c0-7.43.61-8.62,9-8.62H558.38c8.35,0,9,1.19,9,8.62Z" transform="translate(-118.47 -3.47)"/></g></svg>